<svg version="1.1" id="Layer_1" xmlns="http://www.w3.org/2000/svg" xmlns:xlink="http://www.w3.org/1999/xlink" x="0px" y="0px"
	 width="100%" viewBox="0 0 1920 1080" enable-background="new 0 0 1920 1080" xml:space="preserve">
<path fill="#fffff" opacity="1.000000" stroke="none"
	d="
M1258.000000,1081.000000 
	C838.666748,1081.000000 419.833496,1081.000000 1.000169,1081.000000 
	C1.000112,721.000122 1.000112,361.000275 1.000056,1.000314 
	C640.999756,1.000209 1280.999512,1.000209 1920.999512,1.000105 
	C1920.999634,360.999664 1920.999634,720.999329 1920.999756,1080.999512 
	C1700.166626,1081.000000 1479.333374,1081.000000 1258.000000,1081.000000 
M1018.438904,383.999237 
	C1004.091492,380.999634 989.866272,376.527405 975.369751,375.324249 
	C949.646790,373.189362 924.289185,376.332275 899.808167,385.515442 
	C881.810242,392.266724 865.177246,401.384766 850.818298,413.946777 
	C832.253235,430.188568 817.483215,449.389282 807.665405,472.446106 
	C800.162659,490.065948 795.975159,508.361938 794.265991,527.130737 
	C793.177795,539.080750 794.009583,551.330872 795.204529,563.324463 
	C796.189941,573.214783 798.485657,583.057068 801.075256,592.685486 
	C804.922791,606.991211 811.081360,620.398621 818.995972,632.962036 
	C828.597168,648.202759 840.251770,661.872253 854.590210,672.563843 
	C865.973877,681.052185 878.589600,688.137207 891.333740,694.490479 
	C907.927673,702.763062 926.096619,706.255371 944.479187,707.873535 
	C952.915833,708.616272 961.535278,708.657288 969.959534,707.847900 
	C983.032043,706.592041 996.203796,705.193420 1008.975037,702.282715 
	C1024.014893,698.854980 1037.887329,692.092590 1051.172729,684.062866 
	C1076.079102,669.009460 1095.119141,648.499939 1108.936768,623.099670 
	C1119.603271,603.492126 1126.222656,582.335327 1127.713257,560.174255 
	C1128.936523,541.986572 1128.893066,523.602173 1125.080933,505.468353 
	C1121.818848,489.951935 1116.639404,475.088287 1109.409790,461.133972 
	C1100.931030,444.768585 1089.378784,430.609772 1075.742920,417.994629 
	C1064.536743,407.627380 1052.082031,399.347839 1038.682007,392.381653 
	C1032.444214,389.138824 1025.743042,386.787292 1018.438904,383.999237 
M1052.500000,771.000183 
	C1083.984985,771.000183 1115.470093,770.936218 1146.954468,771.080566 
	C1150.906860,771.098633 1152.181763,769.977783 1152.083374,765.979675 
	C1151.829346,755.657532 1151.740601,745.315735 1152.110718,735.000610 
	C1152.286743,730.094360 1150.703369,728.887573 1145.933838,728.899536 
	C1084.963379,729.052612 1023.992371,729.000488 963.021484,729.000549 
	C961.424072,729.000549 959.826660,729.000549 958.303162,729.000549 
	C958.303162,743.322876 958.303162,757.054321 958.303162,771.000183 
	C989.570129,771.000183 1020.535034,771.000183 1052.500000,771.000183 
z"/>
<path fill="#FFFFFF" opacity="1.000000" stroke="none" 
	d="
M1018.845459,384.015503 
	C1025.743042,386.787292 1032.444214,389.138824 1038.682007,392.381653 
	C1052.082031,399.347839 1064.536743,407.627380 1075.742920,417.994629 
	C1089.378784,430.609772 1100.931030,444.768585 1109.409790,461.133972 
	C1116.639404,475.088287 1121.818848,489.951935 1125.080933,505.468353 
	C1128.893066,523.602173 1128.936523,541.986572 1127.713257,560.174255 
	C1126.222656,582.335327 1119.603271,603.492126 1108.936768,623.099670 
	C1095.119141,648.499939 1076.079102,669.009460 1051.172729,684.062866 
	C1037.887329,692.092590 1024.014893,698.854980 1008.975037,702.282715 
	C996.203796,705.193420 983.032043,706.592041 969.959534,707.847900 
	C961.535278,708.657288 952.915833,708.616272 944.479187,707.873535 
	C926.096619,706.255371 907.927673,702.763062 891.333740,694.490479 
	C878.589600,688.137207 865.973877,681.052185 854.590210,672.563843 
	C840.251770,661.872253 828.597168,648.202759 818.995972,632.962036 
	C811.081360,620.398621 804.922791,606.991211 801.075256,592.685486 
	C798.485657,583.057068 796.189941,573.214783 795.204529,563.324463 
	C794.009583,551.330872 793.177795,539.080750 794.265991,527.130737 
	C795.975159,508.361938 800.162659,490.065948 807.665405,472.446106 
	C817.483215,449.389282 832.253235,430.188568 850.818298,413.946777 
	C865.177246,401.384766 881.810242,392.266724 899.808167,385.515442 
	C924.289185,376.332275 949.646790,373.189362 975.369751,375.324249 
	C989.866272,376.527405 1004.091492,380.999634 1018.845459,384.015503 
M1002.631714,427.958130 
	C992.104797,425.638794 981.677246,422.497345 971.025635,421.209656 
	C957.929871,419.626495 944.625549,420.983124 931.880676,424.180939 
	C903.442810,431.316406 880.101379,446.038910 863.861633,471.301636 
	C852.429138,489.086029 846.334900,508.595032 844.229126,529.209717 
	C842.576477,545.388489 843.685425,561.808411 848.333069,577.535034 
	C855.423584,601.527649 867.294006,622.542297 887.600586,638.232666 
	C905.338379,651.938232 925.437927,659.925964 947.403870,661.722473 
	C968.941711,663.484070 990.277283,661.733398 1010.623413,652.325623 
	C1028.427002,644.093262 1043.636108,633.117371 1055.146973,617.285706 
	C1068.210083,599.318787 1075.968384,579.089661 1077.780518,557.025940 
	C1078.695801,545.882202 1077.664673,534.529846 1076.930420,523.310059 
	C1075.623413,503.339325 1067.908203,485.575592 1056.989380,469.098389 
	C1043.864380,449.291779 1025.390381,436.367065 1002.631714,427.958130 
z"/>
<path fill="#F6E2BD" opacity="1.000000" stroke="none" 
	d="
M1052.000000,771.000183 
	C1020.535034,771.000183 989.570129,771.000183 958.303162,771.000183 
	C958.303162,757.054321 958.303162,743.322876 958.303162,729.000549 
	C959.826660,729.000549 961.424072,729.000549 963.021484,729.000549 
	C1023.992371,729.000488 1084.963379,729.052612 1145.933838,728.899536 
	C1150.703369,728.887573 1152.286743,730.094360 1152.110718,735.000610 
	C1151.740601,745.315735 1151.829346,755.657532 1152.083374,765.979675 
	C1152.181763,769.977783 1150.906860,771.098633 1146.954468,771.080566 
	C1115.470093,770.936218 1083.984985,771.000183 1052.000000,771.000183 
z"/>
<path fill="#000000" opacity="1.000000" stroke="none" 
	d="
M1003.041260,427.978577 
	C1025.390381,436.367065 1043.864380,449.291779 1056.989380,469.098389 
	C1067.908203,485.575592 1075.623413,503.339325 1076.930420,523.310059 
	C1077.664673,534.529846 1078.695801,545.882202 1077.780518,557.025940 
	C1075.968384,579.089661 1068.210083,599.318787 1055.146973,617.285706 
	C1043.636108,633.117371 1028.427002,644.093262 1010.623413,652.325623 
	C990.277283,661.733398 968.941711,663.484070 947.403870,661.722473 
	C925.437927,659.925964 905.338379,651.938232 887.600586,638.232666 
	C867.294006,622.542297 855.423584,601.527649 848.333069,577.535034 
	C843.685425,561.808411 842.576477,545.388489 844.229126,529.209717 
	C846.334900,508.595032 852.429138,489.086029 863.861633,471.301636 
	C880.101379,446.038910 903.442810,431.316406 931.880676,424.180939 
	C944.625549,420.983124 957.929871,419.626495 971.025635,421.209656 
	C981.677246,422.497345 992.104797,425.638794 1003.041260,427.978577 
z"/>
</svg>