<svg xmlns="http://www.w3.org/2000/svg" width="56" height="50" viewBox="0 0 56 50">
  <g id="Group_125" data-name="Group 125" transform="translate(-994 -451)">
    <rect id="Rectangle_15" data-name="Rectangle 15" width="56" height="17" transform="translate(994 470)" fill="#eb7a24"/>
    <path id="path4" d="M7,7H57a3,3,0,0,1,3,3V54a3,3,0,0,1-3,3H7a3,3,0,0,1-3-3V10A3,3,0,0,1,7,7ZM42,55h2V53a3,3,0,0,1,2.935-3A5.972,5.972,0,0,1,46,47a4,4,0,1,1,8,0,5.972,5.972,0,0,1-.935,3A3,3,0,0,1,56,53v2h1a1,1,0,0,0,1-1V41H42Zm12,0V53a1,1,0,0,0-1-1H47a1,1,0,0,0-1,1v2ZM24,55h2V53a3,3,0,0,1,2.935-3A5.972,5.972,0,0,1,28,47a4,4,0,1,1,8,0,5.972,5.972,0,0,1-.935,3A3,3,0,0,1,38,53v2h2V41H24Zm12,0V53a1,1,0,0,0-1-1H29a1,1,0,0,0-1,1v2ZM6,41V54a1,1,0,0,0,1,1H8V53a3,3,0,0,1,2.935-3A5.972,5.972,0,0,1,10,47a4,4,0,0,1,8,0,5.972,5.972,0,0,1-.935,3A3,3,0,0,1,20,53v2h2V41ZM18,55V53a1,1,0,0,0-1-1H11a1,1,0,0,0-1,1v2ZM32,45a2,2,0,0,1,2,2,3.913,3.913,0,0,1-.975,2.4,1.178,1.178,0,0,1-2.05,0A3.913,3.913,0,0,1,30,47,2,2,0,0,1,32,45Zm18,0a2,2,0,0,1,2,2,3.913,3.913,0,0,1-.975,2.4,1.178,1.178,0,0,1-2.05,0A3.913,3.913,0,0,1,48,47,2,2,0,0,1,50,45ZM14,45a2,2,0,0,1,2,2,3.913,3.913,0,0,1-.975,2.4A1.46,1.46,0,0,1,14,50a1.46,1.46,0,0,1-1.025-.6A3.913,3.913,0,0,1,12,47,2,2,0,0,1,14,45Zm42-6h2V25H42V39h2V37a3,3,0,0,1,2.935-3A5.972,5.972,0,0,1,46,31a4,4,0,1,1,8,0,5.972,5.972,0,0,1-.935,3A3,3,0,0,1,56,37Zm-2,0V37a1,1,0,0,0-1-1H47a1,1,0,0,0-1,1v2ZM38,39h2V25H24V39h2V37a3,3,0,0,1,2.935-3A5.972,5.972,0,0,1,28,31a4,4,0,1,1,8,0,5.972,5.972,0,0,1-.935,3A3,3,0,0,1,38,37Zm-2,0V37a1,1,0,0,0-1-1H29a1,1,0,0,0-1,1v2ZM20,39h2V25H6V39H8V37a3,3,0,0,1,2.935-3A5.972,5.972,0,0,1,10,31a4,4,0,0,1,8,0,5.972,5.972,0,0,1-.935,3A3,3,0,0,1,20,37Zm-2,0V37a1,1,0,0,0-1-1H11a1,1,0,0,0-1,1v2ZM50,29a2,2,0,0,1,2,2,3.913,3.913,0,0,1-.975,2.4,1.178,1.178,0,0,1-2.05,0A3.913,3.913,0,0,1,48,31,2,2,0,0,1,50,29ZM32,29a2,2,0,0,1,2,2,3.913,3.913,0,0,1-.975,2.4,1.178,1.178,0,0,1-2.05,0A3.913,3.913,0,0,1,30,31,2,2,0,0,1,32,29ZM14,29a2,2,0,0,1,2,2,3.913,3.913,0,0,1-.975,2.4A1.46,1.46,0,0,1,14,34a1.46,1.46,0,0,1-1.025-.6A3.913,3.913,0,0,1,12,31,2,2,0,0,1,14,29Zm28-6h2V21a3,3,0,0,1,2.935-3A5.972,5.972,0,0,1,46,15a4,4,0,0,1,8,0,5.972,5.972,0,0,1-.935,3A3,3,0,0,1,56,21v2h2V10a1,1,0,0,0-1-1H42Zm12,0V21a1,1,0,0,0-1-1H47a1,1,0,0,0-1,1v2ZM24,23h2V21a3,3,0,0,1,2.935-3A5.972,5.972,0,0,1,28,15a4,4,0,0,1,8,0,5.972,5.972,0,0,1-.935,3A3,3,0,0,1,38,21v2h2V9H24Zm12,0V21a1,1,0,0,0-1-1H29a1,1,0,0,0-1,1v2ZM22,23V9H7a1,1,0,0,0-1,1V23H8V21a3,3,0,0,1,2.935-3A5.972,5.972,0,0,1,10,15a4,4,0,0,1,8,0,5.972,5.972,0,0,1-.935,3A3,3,0,0,1,20,21v2Zm-4,0V21a1,1,0,0,0-1-1H11a1,1,0,0,0-1,1v2ZM14,13a2,2,0,0,1,2,2,3.913,3.913,0,0,1-.975,2.4A1.46,1.46,0,0,1,14,18a1.46,1.46,0,0,1-1.025-.6A3.913,3.913,0,0,1,12,15,2,2,0,0,1,14,13Zm18,0a2,2,0,0,1,2,2,3.913,3.913,0,0,1-.975,2.4,1.178,1.178,0,0,1-2.05,0A3.913,3.913,0,0,1,30,15,2,2,0,0,1,32,13Zm18,0a2,2,0,0,1,2,2,3.913,3.913,0,0,1-.975,2.4,1.178,1.178,0,0,1-2.05,0A3.913,3.913,0,0,1,48,15,2,2,0,0,1,50,13Z" transform="translate(990 444)" fill-rule="evenodd"/>
  </g>
</svg>
