<svg xmlns="http://www.w3.org/2000/svg" width="550.781" height="405.817" viewBox="0 0 550.781 405.817">
  <g id="Website_development" data-name="Website development" transform="translate(-230.387 -180.311)">
    <path id="Path_111" data-name="Path 111" d="M299.651,586.128,234.233,473.372a19.019,19.019,0,0,1-1.876-19.914L323.791,213.09c3.147-6.285,8.7-10.433,14.915-11.168l264.507-21.5a17.9,17.9,0,0,1,15.075,5.748l158.1,186.441a18.8,18.8,0,0,1,3.868,18.43L736.458,586.128Z" transform="translate(0 0)" fill="#eee"/>
    <path id="Path_139" data-name="Path 139" d="M480.551,569.009v6.764H602.024V501.961h-8.105" transform="translate(-117.225 -163.111)" fill="#cb3e40"/>
    <path id="Path_473" data-name="Path 473" d="M620.158,485.7H498.09v73.5H620.158Z" transform="translate(-138.552 -149.879)" fill="#fd5355"/>
    <path id="Path_163" data-name="Path 163" d="M805.363,1017.64H301.947a.758.758,0,0,1-.594-.164.725.725,0,0,1-.191-.251.741.741,0,0,1,0-.619.727.727,0,0,1,.191-.251.759.759,0,0,1,.594-.164H805.363a.691.691,0,0,1,.314.019.71.71,0,0,1,.28.145.742.742,0,0,1,0,1.122.708.708,0,0,1-.28.145A.691.691,0,0,1,805.363,1017.64Z" transform="translate(-36.522 -431.749)" fill="#2c2a46"/>
    <path id="Path_164" data-name="Path 164" d="M824,765.16h58.162a2.79,2.79,0,1,1,0,5.579H824" transform="translate(-306.618 -302.091)" fill="#868a91"/>
    <path id="Path_165" data-name="Path 165" d="M824,765.16h58.162a2.79,2.79,0,1,1,0,5.579H824" transform="translate(-306.618 -302.091)" fill="#36344e"/>
    <path id="Path_166" data-name="Path 166" d="M516.68,765.151H690.769a2.8,2.8,0,1,1,0,5.579H516.68a2.8,2.8,0,1,1,0-5.579Z" transform="translate(-146.312 -302.081)" fill="#2c2a46"/>
    <path id="Path_167" data-name="Path 167" d="M529.945,776.82h-2.867V892.655h2.867Z" transform="translate(-153.249 -308.113)" fill="#2c2a46"/>
    <path id="Path_168" data-name="Path 168" d="M872.1,776.7h-2.867V892.6H872.1Z" transform="translate(-329.984 -308.051)" fill="#2c2a46"/>
    <path id="Path_169" data-name="Path 169" d="M748.559,776.439l58.345.126v18.764l-58.345-.126Z" transform="translate(-267.65 -307.917)" fill="#2c2a46"/>
    <path id="Path_170" data-name="Path 170" d="M807.186,795.927l-53.665-.1v-14.3l53.665.092ZM753.96,795.4l52.79.092V782.056l-52.79-.092Z" transform="translate(-270.213 -310.546)" fill="#4e4c6d"/>
    <path id="Path_171" data-name="Path 171" d="M808.767,793.985a1.535,1.535,0,1,1-.407-.731,1.534,1.534,0,0,1,.407.731" transform="translate(-297.187 -316.369)" fill="#61656d"/>
    <path id="Path_172" data-name="Path 172" d="M810.172,794a1.451,1.451,0,0,0-1.711-1.141h.14a1.528,1.528,0,0,1-.131,3,1.528,1.528,0,0,0,1.7-1.861Z" transform="translate(-298.591 -316.385)" opacity="0.2"/>
    <path id="Path_173" data-name="Path 173" d="M748.559,811.439l58.345.126v18.764l-58.345-.126Z" transform="translate(-267.65 -325.995)" fill="#2c2a46"/>
    <path id="Path_174" data-name="Path 174" d="M807.186,830.927l-53.665-.1v-14.3l53.665.092ZM753.96,830.4l52.79.092V817.056l-52.79-.092Z" transform="translate(-270.213 -328.624)" fill="#4e4c6d"/>
    <path id="Path_175" data-name="Path 175" d="M808.767,828.985a1.535,1.535,0,1,1-.407-.732,1.534,1.534,0,0,1,.407.732" transform="translate(-297.187 -334.447)" fill="#61656d"/>
    <path id="Path_176" data-name="Path 176" d="M810.172,829a1.451,1.451,0,0,0-1.711-1.141h.14a1.528,1.528,0,0,1-.131,3,1.528,1.528,0,0,0,1.7-1.861Z" transform="translate(-298.591 -334.463)" opacity="0.2"/>
    <path id="Path_177" data-name="Path 177" d="M748.559,847.439l58.345.126v18.764l-58.345-.126Z" transform="translate(-267.65 -344.59)" fill="#2c2a46"/>
    <path id="Path_178" data-name="Path 178" d="M807.186,866.927l-53.665-.1v-14.3l53.665.092ZM753.96,866.4l52.79.092V853.056l-52.79-.092Z" transform="translate(-270.213 -347.219)" fill="#4e4c6d"/>
    <path id="Path_179" data-name="Path 179" d="M808.767,864.985a1.535,1.535,0,1,1-.407-.731A1.535,1.535,0,0,1,808.767,864.985Z" transform="translate(-297.187 -353.042)" fill="#61656d"/>
    <path id="Path_180" data-name="Path 180" d="M755.769,994H749v10.636h6.769Z" transform="translate(-267.878 -420.293)" fill="#868a91"/>
    <path id="Path_181" data-name="Path 181" d="M759.384,994H756v10.617h3.384Z" transform="translate(-271.494 -420.293)" opacity="0.2"/>
    <path id="Path_182" data-name="Path 182" d="M820.769,994H814v10.636h6.769Z" transform="translate(-301.452 -420.293)" fill="#4e4c6d"/>
    <path id="Path_183" data-name="Path 183" d="M824.384,994H821v10.617h3.384Z" transform="translate(-305.068 -420.293)" fill="#2c2a46"/>
    <path id="Path_184" data-name="Path 184" d="M810.172,865a1.451,1.451,0,0,0-1.711-1.141h.14a1.528,1.528,0,0,1-.131,3,1.528,1.528,0,0,0,1.7-1.861Z" transform="translate(-298.591 -353.058)" opacity="0.2"/>
    <path id="Path_185" data-name="Path 185" d="M748.559,883.439l58.345.126v18.764l-58.345-.126Z" transform="translate(-267.65 -363.185)" fill="#2c2a46"/>
    <path id="Path_186" data-name="Path 186" d="M807.186,902.927l-53.665-.1v-14.3l53.665.092ZM753.96,902.4l52.79.092V889.056l-52.79-.092Z" transform="translate(-270.213 -365.814)" fill="#4e4c6d"/>
    <path id="Path_187" data-name="Path 187" d="M808.767,900.985a1.535,1.535,0,1,1-.407-.731,1.535,1.535,0,0,1,.407.731" transform="translate(-297.187 -371.637)" fill="#61656d"/>
    <path id="Path_188" data-name="Path 188" d="M810.172,901a1.451,1.451,0,0,0-1.711-1.141h.14a1.528,1.528,0,0,1-.131,3,1.528,1.528,0,0,0,1.7-1.861Z" transform="translate(-298.591 -371.653)" opacity="0.2"/>
    <path id="Path_189" data-name="Path 189" d="M748.559,919.439l58.345.126v18.764l-58.345-.126Z" transform="translate(-267.65 -381.78)" fill="#2c2a46"/>
    <path id="Path_190" data-name="Path 190" d="M807.186,938.927l-53.665-.1v-14.3l53.665.092ZM753.96,938.4l52.79.092V925.056l-52.79-.092Z" transform="translate(-270.213 -384.409)" fill="#4e4c6d"/>
    <path id="Path_191" data-name="Path 191" d="M808.767,936.985a1.535,1.535,0,1,1-.407-.731A1.535,1.535,0,0,1,808.767,936.985Z" transform="translate(-297.187 -390.232)" fill="#61656d"/>
    <path id="Path_192" data-name="Path 192" d="M810.172,937a1.451,1.451,0,0,0-1.711-1.141h.14a1.528,1.528,0,0,1-.131,3,1.528,1.528,0,0,0,1.7-1.861Z" transform="translate(-298.591 -390.248)" opacity="0.2"/>
    <path id="Path_193" data-name="Path 193" d="M748.559,955.439l58.345.125v18.764l-58.345-.126Z" transform="translate(-267.65 -400.375)" fill="#2c2a46"/>
    <path id="Path_194" data-name="Path 194" d="M807.186,974.927l-53.665-.1v-14.3l53.665.092ZM753.96,974.4l52.79.092V961.056l-52.79-.092Z" transform="translate(-270.213 -403.004)" fill="#4e4c6d"/>
    <path id="Path_195" data-name="Path 195" d="M808.767,972.985a1.535,1.535,0,1,1-.407-.732,1.534,1.534,0,0,1,.407.732" transform="translate(-297.187 -408.827)" fill="#61656d"/>
    <path id="Path_196" data-name="Path 196" d="M810.172,973a1.451,1.451,0,0,0-1.711-1.141h.14a1.528,1.528,0,0,1-.131,3,1.528,1.528,0,0,0,1.7-1.861Z" transform="translate(-298.591 -408.843)" opacity="0.2"/>
    <path id="Path_197" data-name="Path 197" d="M840.066,776.7H748.559v1.591h91.507Z" transform="translate(-267.65 -308.051)" opacity="0.2"/>
    <path id="Path_198" data-name="Path 198" d="M560.5,776.7H527.34v1.591H560.5Z" transform="translate(-153.384 -308.051)" opacity="0.2"/>
    <path id="Path_199" data-name="Path 199" d="M550.933,868.9H527.078v2.785h24.556Z" transform="translate(-153.249 -355.675)" opacity="0.2"/>
    <path id="Path_200" data-name="Path 200" d="M588,868.9h-6.793l-.387,2.785H588Z" transform="translate(-181.008 -355.675)" opacity="0.2"/>
    <path id="Path_201" data-name="Path 201" d="M875.16,776.7V892.593h4.129V882h19.629v10.589h6.541V776.7Z" transform="translate(-333.043 -308.051)" fill="#868a91"/>
    <path id="Path_202" data-name="Path 202" d="M533,776.82V892.655h4.206V882.067h19.629v10.588H563.3V776.82Z" transform="translate(-156.308 -308.113)" fill="#868a91"/>
    <path id="Path_203" data-name="Path 203" d="M533,776.82V892.655h4.206V882.067h19.629v10.588H563.3V776.82Z" transform="translate(-156.308 -308.113)" fill="#4e4c6d"/>
    <path id="Path_204" data-name="Path 204" d="M875.16,776.7V892.593h4.129V882h19.629v10.589h6.541V776.7Z" transform="translate(-333.043 -308.051)" fill="#4e4c6d"/>
    <path id="Path_205" data-name="Path 205" d="M927.057,994.51H924.3V1005.1h2.756Z" transform="translate(-358.426 -420.556)" fill="#2c2a46"/>
    <path id="Path_206" data-name="Path 206" d="M585.057,994.51H582.3V1005.1h2.756Z" transform="translate(-181.773 -420.556)" fill="#868a91"/>
    <path id="Path_207" data-name="Path 207" d="M712.98,712.978H699.032l-11.9-47.728h13.948Z" transform="translate(-235.92 -250.484)" fill="#3f4249"/>
    <path id="Path_208" data-name="Path 208" d="M712.98,712.978H699.032l-11.9-47.728h13.948Z" transform="translate(-235.92 -250.484)" fill="#4e4c6d"/>
    <path id="Path_209" data-name="Path 209" d="M710.98,712.978H697.037L685.129,665.25h13.948Z" transform="translate(-234.887 -250.484)" fill="#696596"/>
    <path id="Path_210" data-name="Path 210" d="M718.988,741.284H704.054l-.624-2.513h14.93Z" transform="translate(-244.34 -288.46)" opacity="0.2"/>
    <path id="Path_211" data-name="Path 211" d="M710.524,638.029H631.051v48.7h79.473Z" transform="translate(-206.954 -236.424)" fill="#9896b5"/>
    <path id="Path_212" data-name="Path 212" d="M713.471,642.67H636.8v44.209h76.67Z" transform="translate(-211.346 -238.744)" fill="#ecebf1"/>
    <path id="Path_213" data-name="Path 213" d="M796.515,638h-1.093v48.71h1.093Z" transform="translate(-291.856 -236.409)" fill="#3f4249"/>
    <path id="Path_214" data-name="Path 214" d="M796.515,638h-1.093v48.71h1.093Z" transform="translate(-291.856 -236.409)" fill="#4e4c6d"/>
    <path id="Path_215" data-name="Path 215" d="M723.371,760h-50.2v2.577h50.2Z" transform="translate(-228.711 -299.425)" fill="#696596"/>
    <path id="Path_267" data-name="Path 267" d="M1023.918,455.439H914.879v82.825h109.039Z" transform="translate(-355.621 -109.826)" fill="#06899f"/>
    <path id="Path_268" data-name="Path 268" d="M1007.918,472.439H898.879v82.825h109.039Z" transform="translate(-345.295 -120.797)" fill="#05bede"/>
    <path id="Path_347" data-name="Path 347" d="M645.3,938.923c-1.663,4.5-3.757,9.375-4.535,12.754a4.077,4.077,0,0,0,.324,3.336l9.64,14.543c3.1,7.948-16.438-9.307-18.686-10.25l-.667-.285c-2.548-1.073-10.351-4.027-6.643-8.543l2.577-4.124c1.233-2.292,3.089-8.219,4.235-11.415Z" transform="translate(-203.183 -389.786)" fill="#fc9d9d"/>
    <path id="Path_348" data-name="Path 348" d="M638.613,921.273l-1.363-5.023L631.3,925.4c-1.146,3.2-2.838,9.012-4.071,11.3l-2.577,4.124c-1.272,1.552-1.276,2.867-.624,3.964l2.944,1.4C632.719,934.694,638.613,921.273,638.613,921.273Z" transform="translate(-203.106 -380.133)" opacity="0.15"/>
    <path id="Path_349" data-name="Path 349" d="M634.555,977.693a.7.7,0,1,0-.492-.2.7.7,0,0,0,.492.2Z" transform="translate(-208.404 -411.151)" fill="#fc9d9d"/>
    <path id="Path_350" data-name="Path 350" d="M561.68,792.211h72.144a10.245,10.245,0,0,1,9.094,14.949l-32.77,69.291-14.611-6.6,17.178-52.931H571.828Z" transform="translate(-171.122 -316.063)" fill="#04004d"/>
    <path id="Path_351" data-name="Path 351" d="M561.68,792.211h67.169a4.415,4.415,0,0,1,4.056,6.121l-.9,2.127.348.483c1.678,2.417,2.417,6.227,2.969,9.35l1.45,8.219a.324.324,0,0,1,0,.126.317.317,0,0,1-.05.115.31.31,0,0,1-.091.087.32.32,0,0,1-.117.045h-.053a.319.319,0,0,1-.319-.266l-1.45-8.19c-.551-3.1-1.291-6.87-2.978-9.258L601.919,872.6l-6.382-2.751,17.178-52.931H571.828Z" transform="translate(-171.122 -316.063)" opacity="0.3"/>
    <path id="Path_352" data-name="Path 352" d="M718.9,958.18c1.025,4.685,1.9,9.921,3.06,13.184a4.046,4.046,0,0,0,2.074,2.63l15.955,7.049c6.9,5.018-18.855,1.039-21.273,1.45l-.716.121c-2.727.483-10.888,2.19-10.2-3.612l-.058-4.864c-.2-2.591-1.832-8.582-2.591-11.893Z" transform="translate(-245.227 -401.791)" fill="#fc9d9d"/>
    <path id="Path_353" data-name="Path 353" d="M708.94,947.9l-3.868-3.5L705,955.326c.759,3.307,2.471,9.118,2.669,11.71l.058,4.864c-.237,2,.484,3.1,1.61,3.674l3.234-.411C711.222,962.376,708.94,947.9,708.94,947.9Z" transform="translate(-245.151 -394.673)" opacity="0.15"/>
    <path id="Path_354" data-name="Path 354" d="M723.684,1005.042a.7.7,0,1,0-.492-.2.7.7,0,0,0,.492.2Z" transform="translate(-254.442 -425.277)" fill="#fc9d9d"/>
    <path id="Path_355" data-name="Path 355" d="M514.691,805.315l1.4,1.479A26.564,26.564,0,0,0,535,815.057l52.215.682,20.581,66.888,15.829-3.089L609.5,804.116a12.681,12.681,0,0,0-11.018-10.3l-47.695-5.5Z" transform="translate(-146.851 -314.049)" fill="#04004d"/>
    <g id="pie-chart" transform="translate(390.284 345.164)">
      <path id="Path_474" data-name="Path 474" d="M211.333,403.566h-5.325A2.439,2.439,0,0,0,203.571,406v8.337a.8.8,0,0,0,.8.8h8.59a.8.8,0,0,0,.8-.8V406A2.439,2.439,0,0,0,211.333,403.566Zm.828,9.969h-6.981V406a.829.829,0,0,1,.828-.828h5.325a.829.829,0,0,1,.828.828v7.533Z" transform="translate(-181.746 -359.898)" fill="#fff"/>
      <path id="Path_475" data-name="Path 475" d="M69.931,22.724a19.361,19.361,0,0,0,.244-3.063A19.1,19.1,0,0,0,66.711,8.671l1.313-2.34H78.9a.8.8,0,0,0,0-1.608H67.553a.8.8,0,0,0-.7.411L65.645,7.285A19.2,19.2,0,0,0,38.182,5.317a.8.8,0,1,0,1.071,1.2A17.593,17.593,0,0,1,64.8,8.791l-3.284,5.852a.8.8,0,1,0,1.4.787l2.91-5.186a17.5,17.5,0,0,1,2.738,9.418,17.742,17.742,0,0,1-.256,3H64.042a2.439,2.439,0,0,0-2.436,2.436v8.591a17.38,17.38,0,0,1-9.84,3.564V19.661a.8.8,0,0,0-.8-.8H33.376A17.392,17.392,0,0,1,37.163,8.731a.8.8,0,1,0-1.26-1,19.007,19.007,0,0,0-4.153,11.93.8.8,0,0,0,.8.8h17.6V38.071a.8.8,0,0,0,.8.8A18.988,18.988,0,0,0,61.606,35.66V54.441a.8.8,0,0,0,.8.8H71a.8.8,0,0,0,.8-.8V48.4a.8.8,0,1,0-1.608,0v5.233h-6.98V25.094a.829.829,0,0,1,.828-.828h5.325a.829.829,0,0,1,.828.828V45.188a.8.8,0,1,0,1.608,0V25.094a2.44,2.44,0,0,0-1.873-2.369Z" transform="translate(-28.346)" fill="#fff"/>
      <path id="Path_476" data-name="Path 476" d="M424.643,321.109h-5.325a2.439,2.439,0,0,0-2.436,2.436v17.177a.8.8,0,0,0,.8.8h8.59a.8.8,0,0,0,.8-.8V323.545A2.439,2.439,0,0,0,424.643,321.109Zm.828,18.81H418.49V323.545a.829.829,0,0,1,.828-.828h5.325a.829.829,0,0,1,.828.828v16.373Z" transform="translate(-372.187 -286.281)" fill="#fff"/>
      <path id="Path_477" data-name="Path 477" d="M19.212,203.894H.8a.8.8,0,0,0-.8.8,19.246,19.246,0,0,0,12.773,18.1l-2.225,4.825H1.9a.8.8,0,0,0,0,1.608h9.165a.8.8,0,0,0,.73-.467l2.53-5.486a19.173,19.173,0,0,0,4.89.631.8.8,0,0,0,.8-.8V204.7A.8.8,0,0,0,19.212,203.894Zm-.8,18.391a17.536,17.536,0,0,1-3.4-.49l.98-2.125a.8.8,0,0,0-1.46-.674l-1.078,2.337A17.642,17.642,0,0,1,1.626,205.5H18.408Z" transform="translate(0 -181.633)" fill="#fff"/>
      <path id="Path_478" data-name="Path 478" d="M11,394.562h6.68a.8.8,0,0,0,0-1.608H11a.8.8,0,0,0,0,1.608Z" transform="translate(-9.102 -350.424)" fill="#fff"/>
      <path id="Path_479" data-name="Path 479" d="M390.95,12.056h7.922a.8.8,0,0,0,0-1.608H390.95a.8.8,0,0,0,0,1.608Z" transform="translate(-348.318 -8.927)" fill="#fff"/>
      <path id="Path_480" data-name="Path 480" d="M427.51,169.752a.8.8,0,0,0,.8.8h5.842a.8.8,0,0,0,0-1.608h-5.842A.8.8,0,0,0,427.51,169.752Z" transform="translate(-381.676 -150.434)" fill="#fff"/>
      <path id="Path_481" data-name="Path 481" d="M434.156,201.271h-5.842a.8.8,0,0,0,0,1.608h5.842a.8.8,0,0,0,0-1.608Z" transform="translate(-381.676 -179.291)" fill="#fff"/>
      <path id="Path_482" data-name="Path 482" d="M434.156,233.594h-5.842a.8.8,0,0,0,0,1.608h5.842a.8.8,0,0,0,0-1.608Z" transform="translate(-381.676 -208.149)" fill="#fff"/>
    </g>
    <path id="Path_356" data-name="Path 356" d="M526.758,811.721c4.39,6.256,13.818,8.572,21.012,8.649l41.525,1.243a6.462,6.462,0,0,1,6.053,4.777l17.637,67.174-5.207,1.156L587.2,827.811l-50.165-.638a31.369,31.369,0,0,1-22.341-9.771Z" transform="translate(-146.851 -326.141)" opacity="0.3"/>
    <path id="Path_357" data-name="Path 357" d="M500.262,674.51l-18.73,30.546a6.595,6.595,0,0,0,5.623,10.037H506.6Z" transform="translate(-129.223 -255.267)" fill="#4d61fc"/>
    <path id="Path_358" data-name="Path 358" d="M567.192,611.463l1.634,9.766c.082.483,2.722,2.809,2.678,3.612a1.73,1.73,0,0,1-1.378,1.736c-.648.145-.827.048-.827.048l-1.2,5.183c-.57,2.741-2.383,4.98-5.855,4.351l-3.191-.483-3.457,8.219-12.88-9.524,3.549-10.554,4.52-14.935Z" transform="translate(-161.328 -221.368)" fill="#fc9d9d"/>
    <path id="Path_359" data-name="Path 359" d="M544.107,599.574c1.61-3.152,3.67-4.245,6.875-4.042a1.451,1.451,0,0,0,1.228-.8,6.26,6.26,0,0,1,10.574.024,1.638,1.638,0,0,0,2.064.59,4.745,4.745,0,0,1,4.641.4c3.6,2.277,2.108,8.485-1.731,9.041l-3.07.309a1.2,1.2,0,0,0-1.073,1.107,4.271,4.271,0,0,1-.45,1.562,4.424,4.424,0,0,1-4.419,2.417.716.716,0,0,0-.716.442.711.711,0,0,0-.053.293l.058,3.452a.938.938,0,0,1-.517.865.889.889,0,0,1-1.218-.527l-.74-2.292a2.1,2.1,0,0,0-1.784-1.422l-.9-.087c-.875,1.31-1.678,2.78-2.417,3.916a8.626,8.626,0,0,1-1.8,2.069c-1.286,1-2.34.667-2.993-.662,0,0-4.076-8.6-2.18-14.988a9.369,9.369,0,0,1,.653-1.649" transform="translate(-161.463 -212.622)"/>
    <path id="Path_360" data-name="Path 360" d="M554.672,641.329l2.548.266.271.145a5.531,5.531,0,0,0,3.563.687.338.338,0,0,0,.227-.416.333.333,0,0,0-.411-.227,2.348,2.348,0,0,1-.614.077l-3.79-2.6a8.748,8.748,0,0,1-1.794,2.069" transform="translate(-167.502 -237.06)" opacity="0.15"/>
    <path id="Path_361" data-name="Path 361" d="M561.106,628.961a2.354,2.354,0,0,0-3.481-.933c-2.7,1.562-1.451,7.972,3.433,7.813,2.553-.087,1.876-1.479,1.233-3.384Z" transform="translate(-168.305 -231.039)" fill="#fc9d9d"/>
    <path id="Path_362" data-name="Path 362" d="M559.1,631.45a1.805,1.805,0,0,1,1.349-.513,1.783,1.783,0,0,1,1.2.769,3.632,3.632,0,0,1,.672,1.711l.106.561a.3.3,0,0,1-.06.219.3.3,0,0,1-.2.115.293.293,0,0,1-.116-.007.285.285,0,0,1-.1-.051.3.3,0,0,1-.113-.2l-.111-.561a3.417,3.417,0,0,0-.551-1.45,1.261,1.261,0,0,0-.788-.541,1.241,1.241,0,0,0-.9.372.295.295,0,0,1-.382-.45" transform="translate(-169.736 -232.76)" opacity="0.15"/>
    <path id="Path_363" data-name="Path 363" d="M510.32,734.855a35.987,35.987,0,0,0,26.214-8.219l9.742-8.132-9.771-23.6,15.205-16.849-.725-2.166a15.562,15.562,0,0,0-6.822-8.47l-3.723-2.209-1.078-4.129-14.417-9.186-2.359,4.3a17.607,17.607,0,0,0-12.522,15.573l-3.534,38.151c-.454,6.126-.58,11.855,1.01,18.609a16.54,16.54,0,0,0,1.591,4.163Z" transform="translate(-142.481 -243.584)" fill="#4d61fc"/>
    <path id="Path_364" data-name="Path 364" d="M576.867,762.356,566.42,737.119a.495.495,0,0,0-.432-.338.5.5,0,0,0-.192.024.486.486,0,0,0-.167.095.49.49,0,0,0-.17.337.493.493,0,0,0,.023.191l7.682,27.751Z" transform="translate(-173.073 -287.431)" opacity="0.2"/>
    <path id="Path_365" data-name="Path 365" d="M560.216,670.245a.378.378,0,0,0,.194-.05.37.37,0,0,0,.14-.143.382.382,0,0,0-.145-.517l-15.326-8.586a.372.372,0,0,0-.143-.046.381.381,0,0,0-.149.012.383.383,0,0,0-.263.474.377.377,0,0,0,.183.227l15.326,8.611a.41.41,0,0,0,.184.044" transform="translate(-162.252 -248.237)" opacity="0.2"/>
    <path id="Path_366" data-name="Path 366" d="M507.268,690.529,500.3,723.269h3.766l3.641-32.673a.222.222,0,0,0-.351-.213A.221.221,0,0,0,507.268,690.529Z" transform="translate(-139.418 -263.444)" opacity="0.2"/>
    <path id="Path_367" data-name="Path 367" d="M573.625,663.865l-2.031-.377a.556.556,0,0,0-.522.914l1.644,1.4Z" transform="translate(-175.902 -249.569)" opacity="0.15"/>
    <path id="Path_368" data-name="Path 368" d="M622.932,746.777l-27.5,5.773-1.934-6.885-16.646,6.74,4.351,12.962c1.557,3.118,3.8,5.279,7.653,5.1,5.758-.271,44.629-18.372,44.629-18.372l-3-6.459-5.188.667" transform="translate(-178.959 -292.003)" fill="#fc9d9d"/>
    <path id="Path_369" data-name="Path 369" d="M591.021,631.862c.174-.614,0-1.214-.532-1.378a1.008,1.008,0,0,0-1.238.7,1.024,1.024,0,0,0,.527,1.378,1,1,0,0,0,1.242-.7Z" transform="translate(-185.32 -232.504)"/>
    <path id="Path_370" data-name="Path 370" d="M592.147,633.332a.225.225,0,0,0-.048-.151.222.222,0,0,0-.136-.081.231.231,0,0,0-.232.184.224.224,0,0,0,.049.15.23.23,0,0,0,.135.082.218.218,0,0,0,.232-.184Z" transform="translate(-186.644 -233.878)" fill="#fff"/>
    <path id="Path_371" data-name="Path 371" d="M591.524,626.552c-.116.184-.919-.053-1.9-.126s-1.8,0-1.9-.174c-.039-.1.126-.256.483-.392a3.654,3.654,0,0,1,2.9.232C591.428,626.281,591.577,626.465,591.524,626.552Z" transform="translate(-184.572 -230.037)"/>
    <path id="Path_372" data-name="Path 372" d="M593.905,650.363a8.763,8.763,0,0,1-2.34-.087c-.169-.039-.2.2-.087.363a3.386,3.386,0,0,0,2.084,1.2Z" transform="translate(-186.478 -242.748)" fill="#fff"/>
    <path id="Path_373" data-name="Path 373" d="M706.054,754.007s-7.89,1.4-12.4,1.025L693,752.557l7.6-.416Z" transform="translate(-238.952 -295.366)" fill="#fc9d9d"/>
    <path id="Path_374" data-name="Path 374" d="M706.054,754.007s-7.89,1.4-12.4,1.025L693,752.557l7.6-.416Z" transform="translate(-238.952 -295.366)" opacity="0.15"/>
    <path id="Path_375" data-name="Path 375" d="M708.852,747.82l5.362,1.189,3.3,6.343a.76.76,0,0,1,.063.483h0a.735.735,0,0,1-.885.561h0a1.247,1.247,0,0,1-.778-.532l-2.809-4.472-2.447-.643Z" transform="translate(-247.14 -293.134)" fill="#fc9d9d"/>
    <path id="Path_376" data-name="Path 376" d="M725.656,754.586a.884.884,0,0,1-.865.914h0a1.383,1.383,0,0,1-.812-.232l-2.18-1.45-1.857-3.578,5.318,3.631a.875.875,0,0,1,.4.716Z" transform="translate(-252.868 -294.384)" fill="#fc9d9d"/>
    <path id="Path_377" data-name="Path 377" d="M714.513,753.656l-1.17-3.06-4.491-2.775,1.8,2.949,2.447.643Z" transform="translate(-247.14 -293.134)" opacity="0.15"/>
    <path id="Path_378" data-name="Path 378" d="M719.941,750.279l6.4,1.421a.66.66,0,0,1,.483.44h0a.651.651,0,0,1-.343.793h-.039a.718.718,0,0,1-.45.063l-2.756-.483Z" transform="translate(-252.868 -294.404)" fill="#fc9d9d"/>
    <path id="Path_379" data-name="Path 379" d="M722.707,754.456l-2.766-4.177,1.857,3.578Z" transform="translate(-252.868 -294.404)" opacity="0.15"/>
    <path id="Path_380" data-name="Path 380" d="M724.542,752.817l-1.035-.227-3.046-2.19.527.116Z" transform="translate(-253.137 -294.467)" opacity="0.15"/>
    <path id="Path_381" data-name="Path 381" d="M677,745.785l.967,2.006,3.8,4.661a3.984,3.984,0,0,0,3.259,2.069,22.628,22.628,0,0,1,5.478.967.725.725,0,0,0,.735-.179.88.88,0,0,0,0-1.233l-.039-.043a4.831,4.831,0,0,0-2.171-1.315l-2.263-.73c-.295-.082-.44-.556-.421-.861a.647.647,0,0,1,.532-.585l3.558-1a1.63,1.63,0,0,1,1.243.29l1.847,1.344,1.634,4.322a.712.712,0,0,0,.512.445h.058a.721.721,0,0,0,.851-.541h0a.807.807,0,0,0,0-.3l-1.127-5.284-1.934-3.384-7.334-1.673a4.382,4.382,0,0,0-1.45-.087Z" transform="translate(-230.688 -291.496)" fill="#fc9d9d"/>
    <path id="Path_382" data-name="Path 382" d="M589.755,726.156,584.059,706l-15.2,16.835,4.54,10.96Z" transform="translate(-174.83 -271.533)" fill="#4d61fc"/>
    <path id="Path_383" data-name="Path 383" d="M611.708,757.841l-3.292,1.03a.348.348,0,0,1-.382-.551l3.109-2.5Z" transform="translate(-195.024 -297.266)" opacity="0.15"/>
    <path id="Path_384" data-name="Path 384" d="M708.512,985.283V995.1a2.88,2.88,0,0,0,1.792,2.664,2.9,2.9,0,0,0,1.109.208h33.36a1.208,1.208,0,0,0,1.2-1.2,5.473,5.473,0,0,0-3.728-5.163l-7.528-2.485-9.534-7.412a2.644,2.644,0,0,0-3.341.077l-4.235,3.611a2.379,2.379,0,0,1-2.248.484l-5.357-1.663a1.15,1.15,0,0,0-1.494,1.068Z" transform="translate(-246.965 -413.655)" fill="#201c1c"/>
    <path id="Path_385" data-name="Path 385" d="M711.421,1013.433h33.36a1.207,1.207,0,0,0,1.2-1.2,3.9,3.9,0,0,0-.16-1.2H708.578a2.9,2.9,0,0,0,2.843,2.4Z" transform="translate(-246.999 -429.089)" fill="#4d61fc"/>
    <path id="Path_386" data-name="Path 386" d="M711.421,1013.433h33.36a1.207,1.207,0,0,0,1.2-1.2,3.9,3.9,0,0,0-.16-1.2H708.578a2.9,2.9,0,0,0,2.843,2.4Z" transform="translate(-246.999 -429.089)"/>
    <path id="Path_387" data-name="Path 387" d="M742.258,987.469a.309.309,0,0,1-.2-.077.3.3,0,0,1,0-.426l2.026-2.171a.3.3,0,0,1,.425.425l-2.04,2.171a.529.529,0,0,1-.213.077Z" transform="translate(-264.248 -415.493)" fill="#fff"/>
    <path id="Path_388" data-name="Path 388" d="M745.555,990.044a.311.311,0,0,1-.2-.077.3.3,0,0,1,0-.426l2.021-2.176a.3.3,0,0,1,.425.426l-2.021,2.176A.486.486,0,0,1,745.555,990.044Z" transform="translate(-265.951 -416.82)" fill="#fff"/>
    <path id="Path_389" data-name="Path 389" d="M748.842,992.615a.294.294,0,0,1-.193-.077.3.3,0,0,1,0-.425l2.021-2.176a.3.3,0,0,1,.1-.065.3.3,0,0,1,.231,0,.3.3,0,0,1,.162.163.3.3,0,0,1,0,.23.3.3,0,0,1-.065.1l-2.021,2.176a.313.313,0,0,1-.232.077Z" transform="translate(-267.652 -418.148)" fill="#fff"/>
    <path id="Path_390" data-name="Path 390" d="M623.234,958.375l-4.786,8.577a2.856,2.856,0,0,0,1.107,3.906l26.339,14.7,2.819.121c1.238-.2,1.885-.111,2.2-.687,1.136-2.035.261-2.93-1.31-4.656l-5.362-5.865-4.728-11.12a2.645,2.645,0,0,0-2.954-1.562l-5.468,1.083a2.373,2.373,0,0,1-2.19-.687l-3.868-4.066a1.146,1.146,0,0,0-1.8.256Z" transform="translate(-200.253 -401.589)" fill="#201c1c"/>
    <path id="Path_391" data-name="Path 391" d="M651.288,994.279l-4.124-.58L618.257,977.57a2.9,2.9,0,0,0,1.305,3.481l26.354,14.707,2.766.111a5.328,5.328,0,0,0,1.7-.276,1.315,1.315,0,0,0,.677-.667,3.283,3.283,0,0,0,.232-.648Z" transform="translate(-200.261 -411.806)" opacity="0.5"/>
    <path id="Path_392" data-name="Path 392" d="M657.963,974.608a.309.309,0,0,1-.135-.164.3.3,0,0,1,.208-.372l2.824-.914a.3.3,0,0,1,.164.58l-2.819.914a.551.551,0,0,1-.242-.043Z" transform="translate(-220.779 -409.522)" fill="#fff"/>
    <path id="Path_393" data-name="Path 393" d="M659.6,978.444a.289.289,0,0,1-.135-.164.3.3,0,0,1,.029-.226.3.3,0,0,1,.179-.141l2.823-.914a.3.3,0,0,1,.164.58l-2.823.909A.423.423,0,0,1,659.6,978.444Z" transform="translate(-221.623 -411.506)" fill="#fff"/>
    <path id="Path_394" data-name="Path 394" d="M661.2,982.3a.3.3,0,0,1-.135-.16.3.3,0,0,1,.208-.372l2.828-.914a.3.3,0,0,1,.37.21.3.3,0,0,1-.21.37l-2.819.933a.314.314,0,0,1-.242-.068Z" transform="translate(-222.454 -413.499)" fill="#fff"/>
    <path id="Path_395" data-name="Path 395" d="M452.628,932.305l13.126-72.622c.256-1.726-.556-2.823,1.185-2.823h28.825a3.9,3.9,0,0,1,3.689,3.181L509.528,932.7h3.7l-9.51-73.033c-.435-2.935-4.279-5.318-7.252-5.318H466.224a6.439,6.439,0,0,0-6.169,5.318l-13.5,72.637Z" transform="translate(-111.655 -348.16)" fill="#36344e"/>
    <path id="Path_396" data-name="Path 396" d="M476.635,857.6H483.3v.933h-1.9c-1.682,0-.967,1.025-1.16,2.649h-5.69a6.282,6.282,0,0,1,2.084-3.583" transform="translate(-126.118 -349.838)" opacity="0.3"/>
    <path id="Path_397" data-name="Path 397" d="M456.707,932.538h-2.258l13.431-73.386a5.608,5.608,0,0,1,5.289-4.351h30.966a5.351,5.351,0,0,1,5.134,4.448l10.279,73.71H517.31l-10.1-73.405a3.243,3.243,0,0,0-3.07-2.649H473.169a3.48,3.48,0,0,0-3.239,2.669Z" transform="translate(-115.734 -348.393)" fill="#b2b6bb"/>
    <path id="Path_398" data-name="Path 398" d="M456.707,932.538h-2.258l13.431-73.386a5.608,5.608,0,0,1,5.289-4.351h30.966a5.351,5.351,0,0,1,5.134,4.448l10.279,73.71H517.31l-10.1-73.405a3.243,3.243,0,0,0-3.07-2.649H473.169a3.48,3.48,0,0,0-3.239,2.669Z" transform="translate(-115.734 -348.393)" fill="#2c2a46"/>
    <path id="Path_399" data-name="Path 399" d="M463.884,837.894c-5.7-.377-1.272-13.175-2.127-18.3l-.169-1.03,2.06-.343.169,1.03c1.267,7.6-2.519,16.554.068,16.554,1.209,0,2.969-.058,5.405-.131,6.391-.2,17.091-.551,36.343-.551h1.044v2.089h-1.044c-19.223,0-29.9.338-36.26.546-2.456.077-4.23.135-5.473.135" transform="translate(-119.076 -329.498)" fill="#4e4c6d"/>
    <path id="Path_400" data-name="Path 400" d="M510.087,837.914H468.073c-3.336,0-3.283-2.794-2.417-7.735a29.994,29.994,0,0,0,.271-10.245l2.06-.343c1.238,7.441-2.558,16.235.068,16.235h42.014v2.084Z" transform="translate(-121.265 -330.205)" fill="#232238"/>
    <path id="Path_401" data-name="Path 401" d="M563.127,855.356a22.1,22.1,0,0,1-11.12,3.046H496.524c-12.353,0-25.6-.894-27.558-5.908s84.825-3.2,84.825-3.2,6.846,1.223,7.562,1.765,1.794,4.293,1.794,4.293" transform="translate(-123.216 -345.384)" fill="#36344e"/>
    <path id="Path_402" data-name="Path 402" d="M461.406,765.48l-6.653-48.57c-.126-.846-4.308-1.194-4.138-1.934.6-2.693,3.167-6.967,9.9-6.967h33.945a8.519,8.519,0,0,1,8.151,7.03s7.252,47.781,6.962,48.831-1.242,3.234-3.017,3.234-44.857.319-44.857.319Z" transform="translate(-113.751 -272.571)" fill="#4e4c6d"/>
    <path id="Path_403" data-name="Path 403" d="M514.668,850.433H470.382a3.761,3.761,0,1,1,0-7.523h44.286a3.761,3.761,0,0,1,0,7.523Z" transform="translate(-122.021 -342.251)" fill="#2c2a46"/>
    <path id="Path_404" data-name="Path 404" d="M616.285,856.8a3.138,3.138,0,0,1-3.1-2.727c-.063-.295-.938-3.578-8.18-3.578H569.538a3.2,3.2,0,0,1-3.234-2.9,3.138,3.138,0,0,1,3.128-3.346h35.574c11.55,0,14.349,6.928,14.417,9.35a3.133,3.133,0,0,1-2.954,3.22h-.184Zm-3.133-3.123a2.554,2.554,0,0,0,.029.411v-.169a2.248,2.248,0,0,1,0-.242Z" transform="translate(-173.507 -342.943)" fill="#b2b6bb"/>
    <path id="Path_405" data-name="Path 405" d="M616.285,856.8a3.138,3.138,0,0,1-3.1-2.727c-.063-.295-.938-3.578-8.18-3.578H569.538a3.2,3.2,0,0,1-3.234-2.9,3.138,3.138,0,0,1,3.128-3.346h35.574c11.55,0,14.349,6.928,14.417,9.35a3.133,3.133,0,0,1-2.954,3.22h-.184Zm-3.133-3.123a2.554,2.554,0,0,0,.029.411v-.169a2.248,2.248,0,0,1,0-.242Z" transform="translate(-173.507 -342.943)" fill="#2c2a46"/>
    <path id="Path_406" data-name="Path 406" d="M603.217,837.2h-41.69a2.417,2.417,0,0,1-2.379-2.548c.058-4.5,1.673-6.861.2-15.655l-.59-.445,2.417-.343.169,1.03c1.45,8.746-2.147,15.877.145,15.877h41.7Z" transform="translate(-169.615 -329.493)" fill="#4e4c6d"/>
    <path id="Path_407" data-name="Path 407" d="M606.343,838.262H564.914c-5.144,0-.382-9.046-2.171-18.275l2.1-.387c1.272,7.615-1.823,16.573.764,16.573h40.733Z" transform="translate(-171.513 -330.21)" fill="#2c2a46"/>
    <path id="Path_408" data-name="Path 408" d="M613.758,929.753l-10.2-75.707a5.319,5.319,0,0,0-5.139-4.429h-2.572a6.909,6.909,0,0,0-1.117-.1l-30.144-.111a6.445,6.445,0,0,0-6.169,5.318L548.262,930.15h6.053L564.4,854.366a3.219,3.219,0,0,1,3.051-2.649h17.221l9.452.208a3.9,3.9,0,0,1,3.689,3.181l10.027,74.658h3.684l-.058-.435.058.435Z" transform="translate(-164.191 -345.608)" fill="#36344e"/>
    <path id="Path_409" data-name="Path 409" d="M615.633,929.976l-10.051-75.422a3.22,3.22,0,0,0-3.051-2.649H571.564a3.219,3.219,0,0,0-3.051,2.649l-10.085,75.794H556.18l10.259-76.079a5.317,5.317,0,0,1,5.125-4.429h30.942a5.319,5.319,0,0,1,5.139,4.429l10.2,75.692Z" transform="translate(-168.281 -345.83)" fill="#2c2a46"/>
    <path id="Path_410" data-name="Path 410" d="M458.273,767.485l-6.653-48.57c-.131-.846-3.017-1.194-2.848-1.934.6-2.693,5.855-5.091,8.91-5.091h33.945a8.513,8.513,0,0,1,8.156,7.035l6.546,50.068-1.934.454H458.548Z" transform="translate(-112.798 -274.576)" fill="#2c2a46"/>
    <path id="Path_411" data-name="Path 411" d="M457.685,711.869h33.945a8.481,8.481,0,0,1,6.682,3.534.916.916,0,0,1-.43-.3c-.967-1.073-1.832,1.189-1.832,2.05,0,.682-30.536,3.583-44,4.714l-.44-2.959c-.126-.846-3.012-1.194-2.848-1.934.6-2.693,5.86-5.091,8.915-5.091" transform="translate(-112.795 -274.564)" fill="#2c2a46"/>
    <path id="Path_412" data-name="Path 412" d="M453.637,771.491l-6.657-48.57a5.97,5.97,0,0,1,6.072-7.035h35.559a8.523,8.523,0,0,1,8.156,7.035l6.653,48.57s-10.559,2.693-27.369,2.693S453.637,771.491,453.637,771.491Z" transform="translate(-111.826 -276.638)" fill="#4e4c6d"/>
    <path id="Path_413" data-name="Path 413" d="M518.311,858.2H470.07l.745.774H518.1Z" transform="translate(-123.803 -350.148)" fill="#4e4c6d"/>
    <path id="Path_414" data-name="Path 414" d="M866.783,650H814.6v55.715h52.181Z" transform="translate(-301.763 -242.607)" fill="#2c2a46"/>
    <path id="Path_415" data-name="Path 415" d="M840.808,654.721H818.641v49.614h22.167Z" transform="translate(-303.849 -245.046)" fill="none" stroke="#868a91" stroke-miterlimit="10" stroke-width="0.55"/>
    <path id="Path_416" data-name="Path 416" d="M894.9,650.35H869.039v55.416H894.9Z" transform="translate(-329.881 -242.788)" fill="#4e4c6d"/>
    <path id="Path_417" data-name="Path 417" d="M840.911,661.27h-19v2.113h19Z" transform="translate(-305.538 -248.429)" fill="#868a91"/>
    <path id="Path_418" data-name="Path 418" d="M840.911,695.66h-19v5.28h19Z" transform="translate(-305.538 -266.192)" fill="none" stroke="#868a91" stroke-miterlimit="10" stroke-width="0.55"/>
    <path id="Path_419" data-name="Path 419" d="M840.911,706.57h-19v5.28h19Z" transform="translate(-305.538 -271.827)" fill="none" stroke="#868a91" stroke-miterlimit="10" stroke-width="0.55"/>
    <path id="Path_420" data-name="Path 420" d="M824.215,668.91H822.1v.527h2.113Z" transform="translate(-305.637 -252.375)" fill="#868a91"/>
    <path id="Path_421" data-name="Path 421" d="M840.947,674.369H823v.4h17.947Z" transform="translate(-306.101 -255.195)" fill="#868a91"/>
    <path id="Path_422" data-name="Path 422" d="M840.978,679.01H824.09v.4h16.888Z" transform="translate(-306.664 -257.592)" fill="#868a91"/>
    <path id="Path_423" data-name="Path 423" d="M840.148,740.329a1.32,1.32,0,1,0-1.32-1.32A1.32,1.32,0,0,0,840.148,740.329Z" transform="translate(-314.277 -287.901)" fill="#4e4c6d"/>
    <path id="Path_424" data-name="Path 424" d="M841.466,737.676h-.087a1.315,1.315,0,0,1,0,2.625h.087a1.32,1.32,0,1,0,0-2.635Z" transform="translate(-315.594 -287.888)" opacity="0.3"/>
    <path id="Path_425" data-name="Path 425" d="M841.271,728.949h-.537a.247.247,0,0,0-.246.247v2.147a.247.247,0,0,0,.246.247h.537a.246.246,0,0,0,.247-.247V729.2A.247.247,0,0,0,841.271,728.949Z" transform="translate(-315.134 -283.387)" fill="#9896b5"/>
    <path id="Path_426" data-name="Path 426" d="M841.945,729h-.164a.246.246,0,0,1,.247.247v2.147a.246.246,0,0,1-.247.247h.164a.246.246,0,0,0,.247-.247v-2.147a.246.246,0,0,0-.247-.247Z" transform="translate(-315.802 -283.413)" opacity="0.3"/>
    <path id="Path_427" data-name="Path 427" d="M393.891,541H305.506a.814.814,0,0,0-.815.813V608.7a.814.814,0,0,0,.815.813h88.385a.813.813,0,0,0,.815-.813V541.813A.813.813,0,0,0,393.891,541Z" transform="translate(-65.743 -201.208)" fill="#9f680e"/>
    <path id="Path_428" data-name="Path 428" d="M390.989,541h-85.51a.788.788,0,0,0-.788.788V606.65a.788.788,0,0,0,.788.788h85.51a.788.788,0,0,0,.788-.788V541.789A.788.788,0,0,0,390.989,541Z" transform="translate(-67.743 -203.606)" fill="#feaa1f"/>
    <path id="Path_437" data-name="Path 437" d="M1199,753h-75.335a.693.693,0,0,0-.693.693v57.149a.692.692,0,0,0,.693.693H1199a.692.692,0,0,0,.693-.693V753.693A.693.693,0,0,0,1199,753Z" transform="translate(-437.441 -306.326)" fill="#4d61fc"/>
    <path id="Path_438" data-name="Path 438" d="M1214.042,753H1123.8a.835.835,0,0,0-.83.841V823.19a.835.835,0,0,0,.83.841h90.242a.835.835,0,0,0,.83-.841V753.841A.835.835,0,0,0,1214.042,753Z" transform="translate(-444.122 -311.579)" fill="#026d47"/>
    <path id="Path_439" data-name="Path 439" d="M1210.226,753h-88.413a.813.813,0,0,0-.813.813v67.07a.813.813,0,0,0,.813.813h88.413a.812.812,0,0,0,.813-.813v-67.07A.813.813,0,0,0,1210.226,753Z" transform="translate(-445.708 -313.579)" fill="#00b676"/>
    <path id="Path_448" data-name="Path 448" d="M857.117,302.619H718.52V379h138.6Z" transform="translate(-252.134 -83.265)" fill="#5205aa"/>
    <path id="Path_449" data-name="Path 449" d="M847.925,294.57h-138.6v76.59h138.6Z" transform="translate(-247.386 -79.313)" fill="#913df1"/>
    <path id="Path_453" data-name="Path 453" d="M708.762,294v56.852H847.915V294Zm138.6.556v7.387H709.318v-7.387ZM709.318,350.3V302.5H847.359v47.8Z" transform="translate(-247.094 -58.723)" fill="none"/>
    <path id="Path_528" data-name="Path 528" d="M830.75,294.57H709.328v67.1H830.75Z" transform="translate(-420.323 -58.293)" fill="#c10362"/>
    <path id="Path_529" data-name="Path 529" d="M830.75,294.57H709.328v67.1H830.75Z" transform="translate(-424.984 -62.079)" fill="#ff0a85"/>
    <path id="Path_459" data-name="Path 459" d="M1046.755,834.037l-1.517-.7a7,7,0,0,0-.328-1.743l1.17-1.2.047-.051-.035-.055-1.56-2.391-.035-.055-.058.023-1.56.581a7.031,7.031,0,0,0-1.47-1.006c0-.577,0-1.135-.023-1.681V825.7h-.058l-2.789-.589h-.054l-.024.051c-.246.538-.48,1.041-.7,1.533a7,7,0,0,0-1.771.331l-1.213-1.17-.031-.031-.035.023-2.383,1.56-.027.02v.027c.238.64.437,1.17.6,1.6a7.047,7.047,0,0,0-.815,1.127c-.074.133-.129.238-.16.3a.494.494,0,0,0-.047.105h-1.747v.019c-.156.714-.363,1.654-.609,2.785v.035h.031l1.532.718a7.057,7.057,0,0,0,.324,1.775l-1.17,1.209-.035.035.027.043,1.56,2.395.031.047.051-.02,1.56-.577a7.024,7.024,0,0,0,1.47,1.018v1.74h.062l2.785.6h.066l.027-.058.7-1.521a6.93,6.93,0,0,0,1.751-.32l1.2,1.17.047.047.059-.039,2.395-1.56.059-.039-.027-.066c-.179-.5-.39-1.03-.577-1.56a7.106,7.106,0,0,0,1.006-1.459l1.673-.023h.07v-.066q.3-1.416.593-2.789v-.07Zm-11.311-1.751a3.006,3.006,0,0,1,4.287-1.193,2.873,2.873,0,0,1,.647.558,2.623,2.623,0,0,1,.484.749,2.958,2.958,0,0,1-.733,3.436,2.645,2.645,0,0,1-.745.488,2.713,2.713,0,0,1-.819.242,3,3,0,0,1-1.56-.2,2.97,2.97,0,0,1-1.119-.8,3.033,3.033,0,0,1-.749-1.841,6.822,6.822,0,0,1,.027-.749,7.589,7.589,0,0,1,.292-.7Zm-3.346-2.118v-.035c-.047.082-.1.156-.141.238Z" transform="translate(-707.431 -583.603)" fill="none" stroke="#fff" stroke-width="1.25"/>
    <path id="Path_460" data-name="Path 460" d="M996.676,902.393l-4.782-1.911.421-2.652a10.859,10.859,0,0,1-1.607-1.56l-2.641.487-2.009-4.7,2.172-1.56a11.077,11.077,0,0,1-.023-2.274l-2.149-1.49.086-.359,1.747-4.318.367.027,2.262.39.3-.343a14.416,14.416,0,0,1,1.327-1.334l-.5-2.594.32-.183,4.318-1.884,1.58,2.157a10.726,10.726,0,0,1,2.266-.039l1.505-2.251,4.762,1.888-.39,2.644a11.279,11.279,0,0,1,1.607,1.56l2.644-.5,2.044,4.731-2.168,1.583a10.929,10.929,0,0,1,.031,2.231l2.219,1.521-1.907,4.8-2.656-.417a11.015,11.015,0,0,1-1.56,1.6l.492,2.644-4.727,2.04-1.584-2.176a10.905,10.905,0,0,1-2.231.031Zm-3.8-2.465,3.471,1.385,1.42-2.067.261.031a10.242,10.242,0,0,0,2.539-.035l.261-.035,1.478,2.028,3.448-1.482-.46-2.469.207-.164a10.351,10.351,0,0,0,1.771-1.817l.16-.211,2.477.39,1.388-3.51-2.071-1.416.027-.265a10.241,10.241,0,0,0-.035-2.539l-.039-.261,2.024-1.478-1.482-3.436-2.469.464-.164-.207a10.224,10.224,0,0,0-1.829-1.775l-.214-.16.39-2.473-3.452-1.365-1.416,2.071-.261-.031a10.134,10.134,0,0,0-2.574.047l-.261.039L996,877.174l-3.35,1.463.476,2.457-.211.168a12.6,12.6,0,0,0-1.416,1.4l-.64.753-2.4-.39-1.361,3.362,2.048,1.42-.031.261a10.205,10.205,0,0,0,.027,2.582l.039.261-2.032,1.47,1.459,3.4,2.461-.452.164.207a10.165,10.165,0,0,0,1.826,1.786l.214.16Zm6.377-6.045h-.179a4.894,4.894,0,0,1-4.045-2.34,4.97,4.97,0,0,1-.706-3.179,4.735,4.735,0,0,1,.885-2.239,4.958,4.958,0,0,1,2.707-1.841,4.823,4.823,0,0,1,2.258-.074,4.881,4.881,0,0,1,2.3,1.17,4.436,4.436,0,0,1,.893,1.073,4.573,4.573,0,0,1,.573,1.346,4.868,4.868,0,0,1-2.134,5.359,4.616,4.616,0,0,1-2.555.726Zm-.035-8.893a4.3,4.3,0,0,0-1.076.14,4.105,4.105,0,0,0-2.212,1.5,3.838,3.838,0,0,0-.725,1.81,4.09,4.09,0,0,0,.577,2.637,3.978,3.978,0,0,0,1.3,1.314A4.087,4.087,0,0,0,999.1,893a3.754,3.754,0,0,0,1.147-.136,3.676,3.676,0,0,0,1.1-.476,3.983,3.983,0,0,0,1.747-4.38,4.051,4.051,0,0,0-1.2-1.985,4.12,4.12,0,0,0-1.9-.952,3.838,3.838,0,0,0-.768-.078Z" transform="translate(-680.921 -614.645)" fill="none" stroke="#fff" stroke-width="1.25"/>
    <path id="Path_461" data-name="Path 461" d="M1102.69,880.763a14.318,14.318,0,0,0-.683-3.756l2.481-2.524-3.171-4.922-3.323,1.209a14.429,14.429,0,0,0-3.12-2.176l-.035-3.534-5.722-1.24-1.494,3.206a14.459,14.459,0,0,0-3.756.679l-2.524-2.477-4.922,3.167,1.209,3.327a14.362,14.362,0,0,0-2.176,3.12l-3.538.035-1.237,5.722,3.206,1.494a14.465,14.465,0,0,0,.678,3.756l-2.477,2.523,3.167,4.922,3.327-1.209a14.419,14.419,0,0,0,3.12,2.176l.023,3.561,5.722,1.24,1.494-3.206a14.209,14.209,0,0,0,3.752-.683l2.527,2.481,4.922-3.167-1.209-3.327a14.352,14.352,0,0,0,2.177-3.12l3.533-.035,1.24-5.722Zm-8.214,1.744a6.283,6.283,0,1,1-.858-4.73,6.275,6.275,0,0,1,.858,4.73Z" transform="translate(-732.538 -607.215)" fill="none" stroke="#fff" stroke-width="2.5" fill-rule="evenodd"/>
    <path id="Path_462" data-name="Path 462" d="M704.633,642.67H636.8v34.7h67.832Z" transform="translate(-206.927 -233.958)" fill="none" stroke="#fff" stroke-width="1"/>
    <g id="cloud-computing" transform="translate(694.442 450.166)">
      <path id="Path_467" data-name="Path 467" d="M120.659,201.8l-8.878,10.88h5.03v13.372h7.7V212.677h5.03Zm2.222,9.254v13.372h-4.444V211.051h-3.23l5.452-6.681,5.452,6.681Zm0,0" transform="translate(-99.662 -179.472)" fill="#fff"/>
      <path id="Path_468" data-name="Path 468" d="M249.179,206.16h-7.7v13.373h-5.03l8.878,10.88,8.878-10.88h-5.03Zm1.6,15-5.452,6.681-5.452-6.681h3.23V207.786h4.444v13.373Zm0,0" transform="translate(-210.816 -183.362)" fill="#fff"/>
      <path id="Path_469" data-name="Path 469" d="M45.359,13.729A13.886,13.886,0,0,0,18.8,8.743a6.048,6.048,0,0,0-8.191,4.921A12.116,12.116,0,0,0,12.115,37.8h3.679V36.175H12.115a10.489,10.489,0,0,1-.682-20.956l.771-.05-.01-.773v-.021a4.421,4.421,0,0,1,6.629-3.824l.835.482.335-.9a12.259,12.259,0,0,1,23.756,4.254l0,.793.734.075a10.49,10.49,0,0,1-.038,20.872l.16,1.618a12.117,12.117,0,0,0,.76-24.013Zm0,0" fill="#fff"/>
      <path id="Path_470" data-name="Path 470" d="M402.163,190.219l-.042-1.626a7.828,7.828,0,0,0,7.576-7.776,7.981,7.981,0,0,0-.043-.824l1.617-.172a9.515,9.515,0,0,1,.053,1,9.416,9.416,0,0,1-9.161,9.4Zm7.327-11.194a7.76,7.76,0,0,0-.472-1.392l1.484-.665a9.365,9.365,0,0,1,.571,1.684Zm-.929-2.259a7.8,7.8,0,0,0-.881-1.177l1.2-1.094a9.43,9.43,0,0,1,1.066,1.422Zm0,0" transform="translate(-358.523 -155.131)" fill="#fff"/>
      <path id="Path_471" data-name="Path 471" d="M190.782,308.743h-1.626v-4.823h1.626Zm0-5.907h-1.626V301.21h1.626Zm0-2.711h-1.626V298.5h1.626Zm0,0" transform="translate(-168.648 -265.69)" fill="#fff"/>
      <path id="Path_472" data-name="Path 472" d="M315.454,248.292h-1.626v-4.211h1.626Zm0-5.3h-1.626v-1.626h1.626Zm0-2.711h-1.626V238.66h1.626Zm0,0" transform="translate(-279.802 -212.338)" fill="#fff"/>
    </g>
    <path id="raspberry-pi" d="M92.32,24.9l-.394-.692c.016-4.969-2.29-6.994-4.979-8.534.813-.214,1.654-.391,1.884-1.413,1.4-.358,1.69-1.005,1.83-1.691.366-.244,1.589-.928,1.461-2.1A1.749,1.749,0,0,0,93,8.524c.736-.8.93-1.467.617-2.078A1.559,1.559,0,0,0,93.728,4.2c.662-1.2.078-2.488-1.773-2.272-.736-1.082-2.341-.836-2.589-.831-.278-.347-.644-.645-1.772-.5A2.147,2.147,0,0,0,85.2.379C84.2-.4,83.542.224,82.786.46,81.575.07,81.3.6,80.7.821c-1.321-.275-1.722.324-2.356.956l-.737-.015a8.267,8.267,0,0,0-3.333,4.722,8.263,8.263,0,0,0-3.33-4.722l-.736.014c-.634-.632-1.036-1.23-2.356-.956C67.259.6,66.983.07,65.771.46A4.653,4.653,0,0,0,64.281,0h0a1.57,1.57,0,0,0-.929.378,2.147,2.147,0,0,0-2.39.22c-1.128-.144-1.494.153-1.772.5-.248-.005-1.853-.251-2.589.831C54.753,1.715,54.168,3,54.83,4.2a1.559,1.559,0,0,0,.114,2.244c-.312.612-.119,1.275.618,2.078a1.75,1.75,0,0,0,.873,1.939c-.128,1.177,1.1,1.861,1.461,2.1.14.686.433,1.333,1.83,1.69.23,1.022,1.07,1.2,1.884,1.413-2.689,1.539-4.994,3.565-4.978,8.534l-.394.692A8.339,8.339,0,0,0,54.719,37.5,23.349,23.349,0,0,0,55.9,41.3a9.275,9.275,0,0,0,5.851,7.37,19.822,19.822,0,0,0,5.6,3.129,9.356,9.356,0,0,0,6.88,3.041h.1a9.356,9.356,0,0,0,6.88-3.041,19.828,19.828,0,0,0,5.6-3.129,9.275,9.275,0,0,0,5.851-7.37,23.349,23.349,0,0,0,1.181-3.8A8.339,8.339,0,0,0,92.32,24.9Zm-2.373-.849c-.161,2-10.592-6.97-8.791-7.268C86.044,15.967,90.111,18.827,89.947,24.048Zm-4.606,9.974c-2.623,1.693-6.4.6-8.444-2.441S75.331,24.7,77.954,23.01s6.4-.6,8.444,2.44S87.965,32.329,85.342,34.022ZM78.07,3.135a1.551,1.551,0,0,0,.309.817A16.385,16.385,0,0,1,80.18,2.1c0,.351-.177.732.267,1.011a5.257,5.257,0,0,1,1.66-1.427c-.346.6-.059.778.127,1.025a6.065,6.065,0,0,1,2.081-1.316c-.277.337-.663.666-.253,1.053a6.1,6.1,0,0,1,2.475-.956c-.3.337-.927.674-.549,1.011a10.394,10.394,0,0,1,2.363-.582c-.416.342-.763.677-.422.942a5.179,5.179,0,0,1,2.827-.277l-.647.651a18.074,18.074,0,0,0,2.56.083,5.178,5.178,0,0,0-1,1.953c.1.1.622.047,1.111,0-.5,1.055-1.372,1.322-1.575,1.773a1.281,1.281,0,0,0,1.2.014,7.955,7.955,0,0,1-1.716,1.856c.151.107.415.171,1.041.1a9.605,9.605,0,0,1-2.011,1.607c.14.162.622.156,1.069.166a10.135,10.135,0,0,1-2.5,1.524,1.5,1.5,0,0,0,1.069.222,8.39,8.39,0,0,1-2.616,1.067.962.962,0,0,0,.76.443c-1.021.565-2.485.307-2.9.6a1.228,1.228,0,0,0,.717.623c-1.644.1-6.142-.06-7-3.463,1.683-1.849,4.756-4.02,10.04-6.7a34.457,34.457,0,0,0-10.926,5.734C73.773,9.123,76.289,4.837,78.07,3.135ZM74.385,15.409h0c2.589-.028,5.794,1.9,5.781,3.722-.011,1.606-2.251,2.905-5.761,2.881-3.437-.04-5.752-1.633-5.744-3.189C68.668,17.542,71.468,15.334,74.385,15.409ZM61.213,14.037a.962.962,0,0,0,.759-.443,8.391,8.391,0,0,1-2.616-1.067,1.5,1.5,0,0,0,1.069-.222,10.132,10.132,0,0,1-2.5-1.524c.447-.011.929,0,1.069-.166A9.615,9.615,0,0,1,56.98,9.008c.626.074.89.01,1.041-.1A7.955,7.955,0,0,1,56.3,7.055a1.281,1.281,0,0,0,1.2-.014c-.2-.452-1.074-.718-1.575-1.773.489.047,1.007.1,1.111,0a5.173,5.173,0,0,0-1-1.953,18.073,18.073,0,0,0,2.56-.083l-.647-.651a5.179,5.179,0,0,1,2.827.277c.341-.265-.006-.6-.422-.942a10.4,10.4,0,0,1,2.363.582c.379-.337-.246-.674-.549-1.011a6.1,6.1,0,0,1,2.475.956c.41-.387.024-.716-.253-1.053a6.068,6.068,0,0,1,2.082,1.316c.186-.247.473-.429.127-1.025a5.256,5.256,0,0,1,1.66,1.427c.444-.279.265-.66.267-1.011a16.433,16.433,0,0,1,1.8,1.856,1.55,1.55,0,0,0,.309-.817c1.781,1.7,4.3,5.988.647,7.688A34.49,34.49,0,0,0,60.361,5.091c5.282,2.683,8.353,4.853,10.036,6.7-.862,3.4-5.359,3.559-7,3.463a1.229,1.229,0,0,0,.717-.623C63.7,14.344,62.235,14.6,61.213,14.037Zm6.438,2.59c1.8.3-8.63,9.27-8.791,7.268C58.7,18.675,62.763,15.814,67.651,16.627ZM56.576,36.636A6.59,6.59,0,0,1,57.924,26.1C60.756,25.355,58.88,37.644,56.576,36.636Zm9.747,10.508c-1.43.85-4.9.5-7.37-2.992-1.664-2.93-1.45-5.912-.281-6.788,1.747-1.049,4.447.368,6.526,2.743C67.008,42.256,67.834,46.031,66.323,47.144ZM63.486,34.328c-2.623-1.693-3.1-5.53-1.056-8.571s5.82-4.133,8.444-2.44,3.1,5.53,1.056,8.571S66.109,36.021,63.486,34.328Zm10.956,18.8c-3.145.133-6.228-2.537-6.188-3.463-.047-1.357,3.829-2.417,6.357-2.355,2.543-.109,5.956.807,5.963,2.022C80.616,50.514,77.479,53.181,74.442,53.129Zm6.3-13.385a6.055,6.055,0,0,1-6.3,5.781c-3.5.017-6.346-2.544-6.365-5.72v-.061a6.055,6.055,0,0,1,6.3-5.781c3.5-.017,6.346,2.544,6.364,5.72C80.745,39.7,80.745,39.724,80.745,39.744Zm8.809,4.577c-2.71,3.7-6.379,3.848-7.745,2.816-1.429-1.328-.338-5.451,1.621-7.711h0c2.242-2.493,4.639-4.121,6.309-2.849C90.862,37.679,91.522,41.834,89.554,44.321ZM92,36.483c-2.3,1.008-4.181-11.281-1.349-10.534A6.591,6.591,0,0,1,92,36.483Z" transform="translate(209.06 345.026)" fill="#fff"/>
    <g id="Data_Security-Shield-Cloud-Storage-Protection" data-name="Data Security-Shield-Cloud-Storage-Protection" transform="translate(501.562 223.071)">
      <path id="Path_483" data-name="Path 483" d="M49.618,22H47.771A2.771,2.771,0,0,1,45,24.771v1.847A4.624,4.624,0,0,0,49.618,22Z" transform="translate(-3.282 -1.526)" fill="#fff"/>
      <path id="Path_484" data-name="Path 484" d="M28.466,7.847V6A6.474,6.474,0,0,0,22,12.466h1.847A4.624,4.624,0,0,1,28.466,7.847Z" transform="translate(-1.527 -0.305)" fill="#fff"/>
      <path id="Path_485" data-name="Path 485" d="M32.695,32.236V28.371a2.771,2.771,0,1,0-1.847,0v3.865Zm-.924-7.389a.924.924,0,1,1-.924.924A.924.924,0,0,1,31.771,24.846Z" transform="translate(-2.061 -1.601)" fill="#fff"/>
      <path id="Path_486" data-name="Path 486" d="M41,48h1.847v1.847H41Z" transform="translate(-2.977 -3.511)" fill="#fff"/>
      <path id="Path_487" data-name="Path 487" d="M45,49h1.847v1.847H45Z" transform="translate(-3.282 -3.587)" fill="#fff"/>
      <path id="Path_488" data-name="Path 488" d="M41,55h1.847v1.847H41Z" transform="translate(-2.977 -4.045)" fill="#fff"/>
      <path id="Path_489" data-name="Path 489" d="M45,56h1.847v1.847H45Z" transform="translate(-3.282 -4.121)" fill="#fff"/>
      <path id="Path_490" data-name="Path 490" d="M44,41H55.084v1.847H44Z" transform="translate(-3.206 -2.976)" fill="#fff"/>
      <path id="Path_491" data-name="Path 491" d="M46.336,33.405c-6.318,0-11.084,2.383-11.084,5.542v5.542H32.315a2.8,2.8,0,0,0-1.681-1.681V35.8l2.134-1.192A11.978,11.978,0,0,0,38,28.787h3.722a8.313,8.313,0,0,0,1.847-16.423v-.2A6.473,6.473,0,0,0,37.1,5.7a6.218,6.218,0,0,0-2.06.342,10.16,10.16,0,0,0-18.261,6.124v.046a8.313,8.313,0,0,0,.924,16.58h3.722a11.978,11.978,0,0,0,5.228,5.819L28.786,35.8v7.011a2.8,2.8,0,0,0-1.681,1.681H24.168V38.947c0-3.159-4.766-5.542-11.084-5.542S2,35.788,2,38.947V51.879c0,3.159,4.766,5.542,11.084,5.542s11.084-2.383,11.084-5.542V46.337h2.937a2.76,2.76,0,0,0,5.209,0h2.937v5.542c0,3.159,4.766,5.542,11.084,5.542S57.42,55.038,57.42,51.879V38.947C57.42,35.788,52.654,33.405,46.336,33.405ZM22.321,51.879c0,1.746-3.953,3.695-9.237,3.695s-9.237-1.949-9.237-3.695V48.563c1.949,1.459,5.293,2.392,9.237,2.392s7.288-.933,9.237-2.392Zm0-6.466c0,1.746-3.953,3.695-9.237,3.695s-9.237-1.949-9.237-3.695V42.1c1.949,1.459,5.293,2.392,9.237,2.392s7.288-.933,9.237-2.392Zm-9.237-2.771c-5.283,0-9.237-1.949-9.237-3.695s3.953-3.695,9.237-3.695,9.237,1.949,9.237,3.695S18.367,42.642,13.084,42.642Zm7.934-23.009a.912.912,0,0,0-.545.841v3.639a12.017,12.017,0,0,0,.342,2.826H17.7a6.466,6.466,0,1,1,.046-12.931A.933.933,0,0,0,18.672,13a8.308,8.308,0,0,1,15.259-5.33A.924.924,0,0,0,35.113,8,4.507,4.507,0,0,1,37.1,7.543a4.618,4.618,0,0,1,4.618,4.618,5.411,5.411,0,0,1-.074.813.892.892,0,0,0,.166.711.924.924,0,0,0,.637.36,6.466,6.466,0,0,1-.73,12.894H38.6a12.017,12.017,0,0,0,.342-2.826V20.474a.912.912,0,0,0-.545-.841l-8.313-3.695a.9.9,0,0,0-.757,0Zm6.53,13.356a10.152,10.152,0,0,1-5.228-8.876V21.074l7.389-3.288L37.1,21.074v3.039a10.151,10.151,0,0,1-5.227,8.876L29.71,34.2ZM29.71,46.337a.924.924,0,1,1,.924-.924A.924.924,0,0,1,29.71,46.337Zm25.863,5.542c0,1.746-3.953,3.695-9.237,3.695S37.1,53.624,37.1,51.879V48.563c1.949,1.459,5.293,2.392,9.237,2.392s7.288-.933,9.237-2.392Zm0-6.466c0,1.746-3.953,3.695-9.237,3.695S37.1,47.159,37.1,45.413V42.1c1.949,1.459,5.293,2.392,9.237,2.392s7.288-.933,9.237-2.392Zm-9.237-2.771c-5.283,0-9.237-1.949-9.237-3.695s3.953-3.695,9.237-3.695,9.237,1.949,9.237,3.695S51.619,42.642,46.336,42.642Z" transform="translate(0 0)" fill="#fff"/>
      <path id="Path_492" data-name="Path 492" d="M5,48H6.847v1.847H5Z" transform="translate(-0.229 -3.511)" fill="#fff"/>
      <path id="Path_493" data-name="Path 493" d="M9,49h1.847v1.847H9Z" transform="translate(-0.534 -3.587)" fill="#fff"/>
      <path id="Path_494" data-name="Path 494" d="M5,55H6.847v1.847H5Z" transform="translate(-0.229 -4.045)" fill="#fff"/>
      <path id="Path_495" data-name="Path 495" d="M9,56h1.847v1.847H9Z" transform="translate(-0.534 -4.121)" fill="#fff"/>
      <path id="Path_496" data-name="Path 496" d="M8,41H19.084v1.847H8Z" transform="translate(-0.458 -2.976)" fill="#fff"/>
    </g>
    <g id="Group_56" data-name="Group 56" transform="translate(0 2)">
      <path id="Path_497" data-name="Path 497" d="M952.9,567.529H931v1.112h21.9Z" transform="translate(-457.25 -147.896)" fill="#fd5355"/>
      <path id="Path_512" data-name="Path 512" d="M952.9,567.529H931v1.112h21.9Z" transform="translate(-457.25 -135.964)" fill="#fd5355"/>
      <path id="Path_498" data-name="Path 498" d="M926.315,546.8H923.27v1.112h3.045Z" transform="translate(-454.814 -133.123)" fill="#4e4c6d"/>
      <path id="Path_511" data-name="Path 511" d="M926.315,546.8H923.27v1.112h3.045Z" transform="translate(-454.814 -121.19)" fill="#4e4c6d"/>
      <path id="Path_499" data-name="Path 499" d="M915.717,557.16h-3.045v1.112h3.045Z" transform="translate(-444.188 -140.506)" fill="#4e4c6d"/>
      <path id="Path_510" data-name="Path 510" d="M915.717,557.16h-3.045v1.112h3.045Z" transform="translate(-444.188 -128.573)" fill="#4e4c6d"/>
      <path id="Path_500" data-name="Path 500" d="M949,557.16H931v1.112h18Z" transform="translate(-457.25 -140.506)" fill="#6861ff"/>
      <path id="Path_509" data-name="Path 509" d="M949,557.16H931v1.112h18Z" transform="translate(-457.25 -128.573)" fill="#6861ff"/>
      <path id="Path_501" data-name="Path 501" d="M915.717,567.529h-3.045v1.112h3.045Z" transform="translate(-444.188 -147.896)" fill="#fd5355"/>
      <path id="Path_508" data-name="Path 508" d="M915.717,567.529h-3.045v1.112h3.045Z" transform="translate(-444.188 -135.964)" fill="#fd5355"/>
      <path id="Path_502" data-name="Path 502" d="M956.7,546.8H941.34v1.112H956.7Z" transform="translate(-467.693 -133.123)" fill="#9896b5"/>
      <path id="Path_507" data-name="Path 507" d="M956.7,546.8H941.34v1.112H956.7Z" transform="translate(-467.693 -121.19)" fill="#9896b5"/>
      <path id="Path_503" data-name="Path 503" d="M1129.407,577.891h-5.427v1.135h5.427Z" transform="translate(-646.099 -155.282)" fill="#575555"/>
      <path id="Path_506" data-name="Path 506" d="M1129.407,577.891h-5.427v1.135h5.427Z" transform="translate(-646.099 -143.35)" fill="#575555"/>
      <path id="Path_504" data-name="Path 504" d="M1099.966,577.891h-8.136v1.135h8.136Z" transform="translate(-623.375 -155.282)" fill="#575555"/>
      <path id="Path_505" data-name="Path 505" d="M1099.966,577.891h-8.136v1.135h8.136Z" transform="translate(-623.375 -143.35)" fill="#575555"/>
    </g>
    <g id="web-programming" transform="translate(577.613 364.81)">
      <path id="Path_513" data-name="Path 513" d="M123.067,195.051a1.076,1.076,0,0,1-.7-.258l-6.989-5.951a1.08,1.08,0,0,1,0-1.645l6.989-5.951a1.08,1.08,0,1,1,1.4,1.644l-6.023,5.129,6.023,5.129a1.08,1.08,0,0,1-.7,1.9Zm0,0" transform="translate(-97.257 -153.065)" fill="#fff"/>
      <path id="Path_514" data-name="Path 514" d="M250.788,195.051a1.081,1.081,0,0,1-.7-1.9l6.023-5.129-6.023-5.129a1.08,1.08,0,0,1,1.4-1.644l6.989,5.951a1.08,1.08,0,0,1,0,1.645l-6.989,5.951A1.076,1.076,0,0,1,250.788,195.051Zm0,0" transform="translate(-211.182 -153.065)" fill="#fff"/>
      <path id="Path_515" data-name="Path 515" d="M190.036,175.865a1.1,1.1,0,0,1-.224-.024,1.08,1.08,0,0,1-.834-1.279l4.356-20.68a1.08,1.08,0,0,1,2.114.445l-4.356,20.68A1.08,1.08,0,0,1,190.036,175.865Zm0,0" transform="translate(-159.801 -129.415)" fill="#fff"/>
      <path id="Path_516" data-name="Path 516" d="M58.165,57.716H7.251A7.26,7.26,0,0,1,0,50.464V7.251A7.26,7.26,0,0,1,7.251,0H58.165a7.26,7.26,0,0,1,7.251,7.251V50.464A7.26,7.26,0,0,1,58.165,57.716ZM7.251,2.16A5.1,5.1,0,0,0,2.16,7.251V50.464a5.1,5.1,0,0,0,5.091,5.091H58.165a5.1,5.1,0,0,0,5.091-5.091V7.251A5.1,5.1,0,0,0,58.165,2.16Zm0,0" fill="#fff"/>
      <path id="Path_517" data-name="Path 517" d="M64.337,100.25H1.08a1.08,1.08,0,1,1,0-2.16H64.337a1.08,1.08,0,1,1,0,2.16Zm0,0" transform="translate(0 -82.956)" fill="#fff"/>
      <path id="Path_518" data-name="Path 518" d="M100.867,41.125a3.418,3.418,0,1,1,3.418-3.418,3.422,3.422,0,0,1-3.418,3.418Zm0-4.676a1.258,1.258,0,1,0,1.258,1.258,1.259,1.259,0,0,0-1.258-1.258Zm0,0" transform="translate(-82.415 -28.999)" fill="#fff"/>
      <path id="Path_519" data-name="Path 519" d="M32.8,40.91a3.418,3.418,0,1,1,3.418-3.418A3.422,3.422,0,0,1,32.8,40.91Zm0-4.676a1.258,1.258,0,1,0,1.258,1.258A1.26,1.26,0,0,0,32.8,36.234Zm0,0" transform="translate(-24.853 -28.817)" fill="#fff"/>
      <path id="Path_520" data-name="Path 520" d="M168.933,41.339a3.417,3.417,0,1,1,3.418-3.418A3.422,3.422,0,0,1,168.933,41.339Zm0-4.676a1.258,1.258,0,1,0,1.258,1.258A1.259,1.259,0,0,0,168.933,36.663Zm0,0" transform="translate(-139.979 -29.181)" fill="#fff"/>
    </g>
    <path id="Path_530" data-name="Path 530" d="M572.415,497.546H673.16" fill="none" stroke="#57586e" stroke-width="1" stroke-dasharray="5 10"/>
    <path id="Path_531" data-name="Path 531" d="M524.552,407.393V371.529H553.16" fill="none" stroke="#707070" stroke-width="1" stroke-dasharray="5 5"/>
    <path id="Path_532" data-name="Path 532" d="M524.552,367.983V295.156" fill="none" stroke="#707070" stroke-width="1" stroke-dasharray="5 6"/>
    <path id="Path_533" data-name="Path 533" d="M524.552,371.529h-39.59" fill="none" stroke="#707070" stroke-width="1" stroke-dasharray="5 5"/>
    <path id="Path_534" data-name="Path 534" d="M359.538,371.529H328.454" fill="none" stroke="#707070" stroke-width="1" stroke-dasharray="5 5"/>
  </g>
</svg>
