<?xml version="1.0" standalone="no"?>
<!DOCTYPE svg PUBLIC "-//W3C//DTD SVG 20010904//EN"
 "http://www.w3.org/TR/2001/REC-SVG-20010904/DTD/svg10.dtd">
<svg version="1.0" xmlns="http://www.w3.org/2000/svg"
 width="308.000000pt" height="378.000000pt" viewBox="0 0 308.000000 378.000000"
 preserveAspectRatio="xMidYMid meet">

<g transform="translate(0.000000,378.000000) scale(0.100000,-0.100000)"
fill="#000000" stroke="none">
<path d="M1345 3764 c-509 -74 -936 -373 -1164 -814 -117 -227 -160 -392 -168
-645 -3 -106 -1 -203 6 -258 67 -499 373 -933 819 -1160 212 -108 393 -155
633 -164 177 -7 300 5 442 43 284 76 487 193 698 403 226 227 352 458 421 775
19 86 22 132 22 306 0 174 -3 220 -22 303 -70 314 -210 565 -436 785 -211 204
-442 331 -726 399 -89 21 -134 25 -300 28 -107 2 -208 1 -225 -1z m380 -479
c409 -72 744 -394 841 -810 28 -118 26 -359 -3 -475 -97 -387 -395 -685 -783
-783 -71 -18 -113 -21 -250 -21 -145 1 -177 4 -261 26 -537 144 -869 665 -774
1211 74 424 422 775 844 851 103 19 280 19 386 1z"/>
<path d="M1450 215 l0 -215 815 0 815 0 0 215 0 215 -815 0 -815 0 0 -215z"/>
</g>
</svg>
