<svg xmlns="http://www.w3.org/2000/svg" width="56.154" height="47" viewBox="0 0 56.154 47">
  <g id="internet" transform="translate(0 -41.732)">
    <path id="Path_99" data-name="Path 99" d="M40.792,245.7H30.218l-1.106-1.106,2.776-2.776a1.261,1.261,0,0,0-.452-2.074L16.944,234.35a1.371,1.371,0,0,0-1.763,1.763l3.568,9.587H4.219a2.576,2.576,0,0,1-2.574-2.574V225.383a.823.823,0,1,0-1.645,0v17.745a4.224,4.224,0,0,0,4.219,4.219H19.361l1.213,3.26a1.261,1.261,0,0,0,2.074.452l2.776-2.776,2.826,2.826a1.373,1.373,0,0,0,1.939,0l1.748-1.748a1.373,1.373,0,0,0,0-1.939h0l-.075-.075h8.929a.823.823,0,0,0,0-1.645ZM29.22,249.75l-3.214-3.214a.823.823,0,0,0-1.163,0l-2.935,2.935L16.931,236.1l13.37,4.976-2.935,2.935a.823.823,0,0,0,0,1.163l3.214,3.214Z" transform="translate(0 -162.776)"/>
    <path id="Path_100" data-name="Path 100" d="M51.935,41.732H49.059a.823.823,0,0,0,0,1.645h2.876a2.577,2.577,0,0,1,2.574,2.574V51.1H1.645V45.951a2.577,2.577,0,0,1,2.574-2.574H45.255a.823.823,0,1,0,0-1.645H4.219A4.224,4.224,0,0,0,0,45.951V58.9a.823.823,0,0,0,1.645,0V52.75H54.509v27.6a2.577,2.577,0,0,1-2.574,2.574h-7.2a.823.823,0,0,0,0,1.645h7.2a4.224,4.224,0,0,0,4.219-4.219v-34.4A4.224,4.224,0,0,0,51.935,41.732Z" transform="translate(0)"/>
    <path id="Path_101" data-name="Path 101" d="M49.7,79.593a1.524,1.524,0,1,0,1.524-1.524A1.524,1.524,0,0,0,49.7,79.593Z" transform="translate(-44.247 -32.352)"/>
    <path id="Path_102" data-name="Path 102" d="M92.434,79.593a1.524,1.524,0,1,0,1.524-1.524A1.524,1.524,0,0,0,92.434,79.593Z" transform="translate(-82.296 -32.352)"/>
    <path id="Path_103" data-name="Path 103" d="M135.17,79.593a1.524,1.524,0,1,0,1.524-1.524A1.524,1.524,0,0,0,135.17,79.593Z" transform="translate(-120.345 -32.352)"/>
    <path id="Path_104" data-name="Path 104" d="M63.211,229.593h0a.822.822,0,0,0,.775-.546l2.038-5.718,1.947,5.707a.823.823,0,0,0,.775.557h0a.823.823,0,0,0,.776-.551l2.762-7.88a.823.823,0,1,0-1.553-.544l-1.975,5.635-1.94-5.688a.828.828,0,0,0-1.553-.011l-2.04,5.726-1.941-5.648a.823.823,0,0,0-1.556.535l2.7,7.871a.823.823,0,0,0,.773.555Z" transform="translate(-53.142 -158.734)" fill="#eb7a24"/>
    <path id="Path_105" data-name="Path 105" d="M201.978,229.593h0a.822.822,0,0,0,.775-.546l2.038-5.718,1.947,5.707a.823.823,0,0,0,.775.557h0a.823.823,0,0,0,.776-.551l2.762-7.88a.823.823,0,1,0-1.553-.544l-1.975,5.635-1.94-5.688a.828.828,0,0,0-1.553-.011L202,226.28l-1.941-5.648a.823.823,0,0,0-1.556.535l2.7,7.871A.823.823,0,0,0,201.978,229.593Z" transform="translate(-176.69 -158.734)" fill="#eb7a24"/>
    <path id="Path_106" data-name="Path 106" d="M338.493,229.593h0a.822.822,0,0,0,.775-.546l2.038-5.718,1.947,5.707a.823.823,0,0,0,.775.557h0a.823.823,0,0,0,.776-.551l2.762-7.88a.823.823,0,0,0-1.553-.544l-1.975,5.635-1.94-5.688a.828.828,0,0,0-1.553-.011l-2.04,5.726-1.941-5.648a.823.823,0,0,0-1.556.535l2.7,7.871A.823.823,0,0,0,338.493,229.593Z" transform="translate(-298.233 -158.734)" fill="#eb7a24"/>
  </g>
</svg>
